<svg id="visual" viewBox="0 0 900 450" width="900" height="450" xmlns="http://www.w3.org/2000/svg" xmlns:xlink="http://www.w3.org/1999/xlink" version="1.1"><rect x="0" y="0" width="900" height="450" fill="#ffffff"></rect><defs><linearGradient id="grad1_0" x1="50%" y1="0%" x2="100%" y2="100%"><stop offset="10%" stop-color="#17d5d5" stop-opacity="1"></stop><stop offset="90%" stop-color="#17d5d5" stop-opacity="1"></stop></linearGradient></defs><defs><linearGradient id="grad1_1" x1="50%" y1="0%" x2="100%" y2="100%"><stop offset="10%" stop-color="#17d5d5" stop-opacity="1"></stop><stop offset="90%" stop-color="#59dbdb" stop-opacity="1"></stop></linearGradient></defs><defs><linearGradient id="grad1_2" x1="50%" y1="0%" x2="100%" y2="100%"><stop offset="10%" stop-color="#7ee2e1" stop-opacity="1"></stop><stop offset="90%" stop-color="#59dbdb" stop-opacity="1"></stop></linearGradient></defs><defs><linearGradient id="grad1_3" x1="50%" y1="0%" x2="100%" y2="100%"><stop offset="10%" stop-color="#7ee2e1" stop-opacity="1"></stop><stop offset="90%" stop-color="#9ce8e7" stop-opacity="1"></stop></linearGradient></defs><defs><linearGradient id="grad1_4" x1="50%" y1="0%" x2="100%" y2="100%"><stop offset="10%" stop-color="#b6eeed" stop-opacity="1"></stop><stop offset="90%" stop-color="#9ce8e7" stop-opacity="1"></stop></linearGradient></defs><defs><linearGradient id="grad1_5" x1="50%" y1="0%" x2="100%" y2="100%"><stop offset="10%" stop-color="#b6eeed" stop-opacity="1"></stop><stop offset="90%" stop-color="#d0f4f3" stop-opacity="1"></stop></linearGradient></defs><defs><linearGradient id="grad1_6" x1="50%" y1="0%" x2="100%" y2="100%"><stop offset="10%" stop-color="#e8f9f9" stop-opacity="1"></stop><stop offset="90%" stop-color="#d0f4f3" stop-opacity="1"></stop></linearGradient></defs><defs><linearGradient id="grad1_7" x1="50%" y1="0%" x2="100%" y2="100%"><stop offset="10%" stop-color="#e8f9f9" stop-opacity="1"></stop><stop offset="90%" stop-color="#ffffff" stop-opacity="1"></stop></linearGradient></defs><defs><linearGradient id="grad2_0" x1="0%" y1="0%" x2="50%" y2="100%"><stop offset="10%" stop-color="#17d5d5" stop-opacity="1"></stop><stop offset="90%" stop-color="#17d5d5" stop-opacity="1"></stop></linearGradient></defs><defs><linearGradient id="grad2_1" x1="0%" y1="0%" x2="50%" y2="100%"><stop offset="10%" stop-color="#59dbdb" stop-opacity="1"></stop><stop offset="90%" stop-color="#17d5d5" stop-opacity="1"></stop></linearGradient></defs><defs><linearGradient id="grad2_2" x1="0%" y1="0%" x2="50%" y2="100%"><stop offset="10%" stop-color="#59dbdb" stop-opacity="1"></stop><stop offset="90%" stop-color="#7ee2e1" stop-opacity="1"></stop></linearGradient></defs><defs><linearGradient id="grad2_3" x1="0%" y1="0%" x2="50%" y2="100%"><stop offset="10%" stop-color="#9ce8e7" stop-opacity="1"></stop><stop offset="90%" stop-color="#7ee2e1" stop-opacity="1"></stop></linearGradient></defs><defs><linearGradient id="grad2_4" x1="0%" y1="0%" x2="50%" y2="100%"><stop offset="10%" stop-color="#9ce8e7" stop-opacity="1"></stop><stop offset="90%" stop-color="#b6eeed" stop-opacity="1"></stop></linearGradient></defs><defs><linearGradient id="grad2_5" x1="0%" y1="0%" x2="50%" y2="100%"><stop offset="10%" stop-color="#d0f4f3" stop-opacity="1"></stop><stop offset="90%" stop-color="#b6eeed" stop-opacity="1"></stop></linearGradient></defs><defs><linearGradient id="grad2_6" x1="0%" y1="0%" x2="50%" y2="100%"><stop offset="10%" stop-color="#d0f4f3" stop-opacity="1"></stop><stop offset="90%" stop-color="#e8f9f9" stop-opacity="1"></stop></linearGradient></defs><defs><linearGradient id="grad2_7" x1="0%" y1="0%" x2="50%" y2="100%"><stop offset="10%" stop-color="#ffffff" stop-opacity="1"></stop><stop offset="90%" stop-color="#e8f9f9" stop-opacity="1"></stop></linearGradient></defs><g transform="translate(900, 0)"><path d="M0 405C-40.6 388.3 -81.3 371.6 -114 350.9C-146.8 330.3 -171.6 305.6 -210.4 289.6C-249.2 273.7 -301.9 266.4 -327.7 238.1C-353.4 209.7 -352.1 160.3 -360.5 117.1C-368.8 73.9 -386.9 37 -405 0L0 0Z" fill="#f3fcfc"></path><path d="M0 354.4C-35.6 339.8 -71.1 325.2 -99.8 307.1C-128.4 289 -150.2 267.4 -184.1 253.4C-218.1 239.5 -264.2 233.1 -286.7 208.3C-309.2 183.5 -308.1 140.3 -315.4 102.5C-322.7 64.7 -338.6 32.3 -354.4 0L0 0Z" fill="#dcf7f6"></path><path d="M0 303.8C-30.5 291.2 -61 278.7 -85.5 263.2C-110.1 247.7 -128.7 229.2 -157.8 217.2C-186.9 205.2 -226.5 199.8 -245.7 178.5C-265 157.3 -264 120.2 -270.3 87.8C-276.6 55.4 -290.2 27.7 -303.7 0L0 0Z" fill="#c3f1f0"></path><path d="M0 253.1C-25.4 242.7 -50.8 232.3 -71.3 219.3C-91.7 206.4 -107.3 191 -131.5 181C-155.8 171 -188.7 166.5 -204.8 148.8C-220.9 131.1 -220 100.2 -225.3 73.2C-230.5 46.2 -241.8 23.1 -253.1 0L0 0Z" fill="#a9ebea"></path><path d="M0 202.5C-20.3 194.2 -40.6 185.8 -57 175.5C-73.4 165.1 -85.8 152.8 -105.2 144.8C-124.6 136.8 -151 133.2 -163.8 119C-176.7 104.9 -176 80.2 -180.2 58.6C-184.4 37 -193.5 18.5 -202.5 0L0 0Z" fill="#8de5e4"></path><path d="M0 151.9C-15.2 145.6 -30.5 139.4 -42.8 131.6C-55 123.8 -64.4 114.6 -78.9 108.6C-93.5 102.6 -113.2 99.9 -122.9 89.3C-132.5 78.6 -132 60.1 -135.2 43.9C-138.3 27.7 -145.1 13.9 -151.9 0L0 0Z" fill="#6ddfde"></path><path d="M0 101.3C-10.2 97.1 -20.3 92.9 -28.5 87.7C-36.7 82.6 -42.9 76.4 -52.6 72.4C-62.3 68.4 -75.5 66.6 -81.9 59.5C-88.3 52.4 -88 40.1 -90.1 29.3C-92.2 18.5 -96.7 9.2 -101.2 0L0 0Z" fill="#41d8d8"></path><path d="M0 50.6C-5.1 48.5 -10.2 46.5 -14.3 43.9C-18.3 41.3 -21.5 38.2 -26.3 36.2C-31.2 34.2 -37.7 33.3 -41 29.8C-44.2 26.2 -44 20 -45.1 14.6C-46.1 9.2 -48.4 4.6 -50.6 0L0 0Z" fill="#17d5d5"></path></g><g transform="translate(0, 450)"><path d="M0 -405C32.3 -370.2 64.6 -335.5 106.6 -328.1C148.6 -320.7 200.3 -340.8 238.1 -327.7C275.8 -314.5 299.7 -268.3 311.5 -226.3C323.3 -184.3 323.1 -146.4 336.7 -109.4C350.3 -72.4 377.6 -36.2 405 0L0 0Z" fill="#f3fcfc"></path><path d="M0 -354.4C28.3 -324 56.5 -293.6 93.3 -287.1C130 -280.6 175.3 -298.2 208.3 -286.7C241.3 -275.2 262.2 -234.8 272.5 -198C282.9 -161.2 282.7 -128.1 294.6 -95.7C306.5 -63.3 330.4 -31.7 354.4 0L0 0Z" fill="#dcf7f6"></path><path d="M0 -303.7C24.2 -277.7 48.5 -251.6 80 -246.1C111.5 -240.6 150.2 -255.6 178.5 -245.7C206.9 -235.9 224.7 -201.2 233.6 -169.7C242.5 -138.2 242.3 -109.8 252.5 -82C262.7 -54.3 283.2 -27.1 303.8 0L0 0Z" fill="#c3f1f0"></path><path d="M0 -253.1C20.2 -231.4 40.4 -209.7 66.6 -205.1C92.9 -200.5 125.2 -213 148.8 -204.8C172.4 -196.6 187.3 -167.7 194.7 -141.4C202.1 -115.2 201.9 -91.5 210.4 -68.4C218.9 -45.2 236 -22.6 253.1 0L0 0Z" fill="#a9ebea"></path><path d="M0 -202.5C16.2 -185.1 32.3 -167.7 53.3 -164.1C74.3 -160.4 100.1 -170.4 119 -163.8C137.9 -157.3 149.8 -134.2 155.7 -113.1C161.6 -92.1 161.5 -73.2 168.3 -54.7C175.1 -36.2 188.8 -18.1 202.5 0L0 0Z" fill="#8de5e4"></path><path d="M0 -151.9C12.1 -138.8 24.2 -125.8 40 -123C55.7 -120.3 75.1 -127.8 89.3 -122.9C103.4 -118 112.4 -100.6 116.8 -84.9C121.2 -69.1 121.2 -54.9 126.3 -41C131.3 -27.1 141.6 -13.6 151.9 0L0 0Z" fill="#6ddfde"></path><path d="M0 -101.2C8.1 -92.6 16.2 -83.9 26.7 -82C37.2 -80.2 50.1 -85.2 59.5 -81.9C69 -78.6 74.9 -67.1 77.9 -56.6C80.8 -46.1 80.8 -36.6 84.2 -27.3C87.6 -18.1 94.4 -9 101.3 0L0 0Z" fill="#41d8d8"></path><path d="M0 -50.6C4 -46.3 8.1 -41.9 13.3 -41C18.6 -40.1 25 -42.6 29.8 -41C34.5 -39.3 37.5 -33.5 38.9 -28.3C40.4 -23 40.4 -18.3 42.1 -13.7C43.8 -9 47.2 -4.5 50.6 0L0 0Z" fill="#17d5d5"></path></g></svg>