<svg id="visual" viewBox="0 0 1000 800" width="1000" height="800" xmlns="http://www.w3.org/2000/svg" xmlns:xlink="http://www.w3.org/1999/xlink" version="1.1"><rect x="0" y="0" width="1000" height="800" fill="#ffffff"></rect><defs><linearGradient id="grad1_0" x1="20%" y1="0%" x2="100%" y2="100%"><stop offset="25%" stop-color="#44d8ab" stop-opacity="1"></stop><stop offset="75%" stop-color="#44d8ab" stop-opacity="1"></stop></linearGradient></defs><defs><linearGradient id="grad1_1" x1="20%" y1="0%" x2="100%" y2="100%"><stop offset="25%" stop-color="#44d8ab" stop-opacity="1"></stop><stop offset="75%" stop-color="#6adeb7" stop-opacity="1"></stop></linearGradient></defs><defs><linearGradient id="grad1_2" x1="20%" y1="0%" x2="100%" y2="100%"><stop offset="25%" stop-color="#87e4c2" stop-opacity="1"></stop><stop offset="75%" stop-color="#6adeb7" stop-opacity="1"></stop></linearGradient></defs><defs><linearGradient id="grad1_3" x1="20%" y1="0%" x2="100%" y2="100%"><stop offset="25%" stop-color="#87e4c2" stop-opacity="1"></stop><stop offset="75%" stop-color="#a2eace" stop-opacity="1"></stop></linearGradient></defs><defs><linearGradient id="grad1_4" x1="20%" y1="0%" x2="100%" y2="100%"><stop offset="25%" stop-color="#baf0da" stop-opacity="1"></stop><stop offset="75%" stop-color="#a2eace" stop-opacity="1"></stop></linearGradient></defs><defs><linearGradient id="grad1_5" x1="20%" y1="0%" x2="100%" y2="100%"><stop offset="25%" stop-color="#baf0da" stop-opacity="1"></stop><stop offset="75%" stop-color="#d2f5e6" stop-opacity="1"></stop></linearGradient></defs><defs><linearGradient id="grad1_6" x1="20%" y1="0%" x2="100%" y2="100%"><stop offset="25%" stop-color="#e9faf3" stop-opacity="1"></stop><stop offset="75%" stop-color="#d2f5e6" stop-opacity="1"></stop></linearGradient></defs><defs><linearGradient id="grad1_7" x1="20%" y1="0%" x2="100%" y2="100%"><stop offset="25%" stop-color="#e9faf3" stop-opacity="1"></stop><stop offset="75%" stop-color="#ffffff" stop-opacity="1"></stop></linearGradient></defs><defs><linearGradient id="grad2_0" x1="0%" y1="0%" x2="80%" y2="100%"><stop offset="25%" stop-color="#44d8ab" stop-opacity="1"></stop><stop offset="75%" stop-color="#44d8ab" stop-opacity="1"></stop></linearGradient></defs><defs><linearGradient id="grad2_1" x1="0%" y1="0%" x2="80%" y2="100%"><stop offset="25%" stop-color="#6adeb7" stop-opacity="1"></stop><stop offset="75%" stop-color="#44d8ab" stop-opacity="1"></stop></linearGradient></defs><defs><linearGradient id="grad2_2" x1="0%" y1="0%" x2="80%" y2="100%"><stop offset="25%" stop-color="#6adeb7" stop-opacity="1"></stop><stop offset="75%" stop-color="#87e4c2" stop-opacity="1"></stop></linearGradient></defs><defs><linearGradient id="grad2_3" x1="0%" y1="0%" x2="80%" y2="100%"><stop offset="25%" stop-color="#a2eace" stop-opacity="1"></stop><stop offset="75%" stop-color="#87e4c2" stop-opacity="1"></stop></linearGradient></defs><defs><linearGradient id="grad2_4" x1="0%" y1="0%" x2="80%" y2="100%"><stop offset="25%" stop-color="#a2eace" stop-opacity="1"></stop><stop offset="75%" stop-color="#baf0da" stop-opacity="1"></stop></linearGradient></defs><defs><linearGradient id="grad2_5" x1="0%" y1="0%" x2="80%" y2="100%"><stop offset="25%" stop-color="#d2f5e6" stop-opacity="1"></stop><stop offset="75%" stop-color="#baf0da" stop-opacity="1"></stop></linearGradient></defs><defs><linearGradient id="grad2_6" x1="0%" y1="0%" x2="80%" y2="100%"><stop offset="25%" stop-color="#d2f5e6" stop-opacity="1"></stop><stop offset="75%" stop-color="#e9faf3" stop-opacity="1"></stop></linearGradient></defs><defs><linearGradient id="grad2_7" x1="0%" y1="0%" x2="80%" y2="100%"><stop offset="25%" stop-color="#ffffff" stop-opacity="1"></stop><stop offset="75%" stop-color="#e9faf3" stop-opacity="1"></stop></linearGradient></defs><g transform="translate(1000, 0)"><path d="M0 640.3C-59 609.9 -118 579.4 -183.2 564C-248.4 548.5 -319.8 548.1 -376.4 518C-432.9 488 -474.6 428.4 -508.9 369.7C-543.1 311.1 -569.9 253.4 -590.6 191.9C-611.3 130.4 -625.8 65.2 -640.3 0L0 0Z" fill="#f4fdf9"></path><path d="M0 560.3C-51.6 533.6 -103.3 507 -160.3 493.5C-217.4 480 -279.8 479.6 -329.3 453.3C-378.8 427 -415.3 374.8 -445.3 323.5C-475.2 272.2 -498.7 221.7 -516.8 167.9C-534.9 114.1 -547.6 57.1 -560.3 0L0 0Z" fill="#ddf8ed"></path><path d="M0 480.2C-44.3 457.4 -88.5 434.6 -137.4 423C-186.3 411.4 -239.9 411 -282.3 388.5C-324.7 366 -356 321.3 -381.7 277.3C-407.3 233.3 -427.5 190 -443 143.9C-458.5 97.8 -469.3 48.9 -480.2 0L0 0Z" fill="#c6f2e0"></path><path d="M0 400.2C-36.9 381.2 -73.8 362.1 -114.5 352.5C-155.3 342.8 -199.9 342.5 -235.2 323.8C-270.6 305 -296.6 267.7 -318 231.1C-339.5 194.4 -356.2 158.3 -369.1 119.9C-382 81.5 -391.1 40.8 -400.2 0L0 0Z" fill="#aeedd4"></path><path d="M0 320.2C-29.5 304.9 -59 289.7 -91.6 282C-124.2 274.3 -159.9 274 -188.2 259C-216.5 244 -237.3 214.2 -254.4 184.9C-271.6 155.5 -285 126.7 -295.3 95.9C-305.6 65.2 -312.9 32.6 -320.2 0L0 0Z" fill="#95e7c8"></path><path d="M0 240.1C-22.1 228.7 -44.3 217.3 -68.7 211.5C-93.2 205.7 -119.9 205.5 -141.1 194.3C-162.3 183 -178 160.6 -190.8 138.6C-203.7 116.6 -213.7 95 -221.5 72C-229.2 48.9 -234.7 24.5 -240.1 0L0 0Z" fill="#79e1bd"></path><path d="M0 160.1C-14.8 152.5 -29.5 144.9 -45.8 141C-62.1 137.1 -80 137 -94.1 129.5C-108.2 122 -118.7 107.1 -127.2 92.4C-135.8 77.8 -142.5 63.3 -147.7 48C-152.8 32.6 -156.4 16.3 -160.1 0L0 0Z" fill="#58dbb1"></path><path d="M0 80C-7.4 76.2 -14.8 72.4 -22.9 70.5C-31.1 68.6 -40 68.5 -47 64.8C-54.1 61 -59.3 53.5 -63.6 46.2C-67.9 38.9 -71.2 31.7 -73.8 24C-76.4 16.3 -78.2 8.2 -80 0L0 0Z" fill="#44d8ab"></path></g><g transform="translate(0, 800)"><path d="M0 -640.3C76 -647.5 152 -654.6 197.9 -609C243.7 -563.3 259.5 -464.8 302.1 -415.8C344.7 -366.8 414.2 -367.3 464.4 -337.4C514.6 -307.4 545.5 -247 571.6 -185.7C597.7 -124.4 619 -62.2 640.3 0L0 0Z" fill="#f4fdf9"></path><path d="M0 -560.3C66.5 -566.5 133 -572.8 173.1 -532.9C213.3 -492.9 227.1 -406.7 264.4 -363.9C301.6 -321 362.4 -321.4 406.3 -295.2C450.2 -269 477.3 -216.1 500.1 -162.5C523 -108.9 541.6 -54.4 560.3 0L0 0Z" fill="#ddf8ed"></path><path d="M0 -480.2C57 -485.6 114 -491 148.4 -456.7C182.8 -422.5 194.6 -348.6 226.6 -311.9C258.5 -275.1 310.6 -275.5 348.3 -253C385.9 -230.6 409.1 -185.3 428.7 -139.3C448.3 -93.3 464.3 -46.7 480.2 0L0 0Z" fill="#c6f2e0"></path><path d="M0 -400.2C47.5 -404.7 95 -409.1 123.7 -380.6C152.3 -352.1 162.2 -290.5 188.8 -259.9C215.5 -229.3 258.9 -229.6 290.2 -210.9C321.6 -192.1 340.9 -154.4 357.2 -116.1C373.6 -77.8 386.9 -38.9 400.2 0L0 0Z" fill="#aeedd4"></path><path d="M0 -320.2C38 -323.7 76 -327.3 98.9 -304.5C121.9 -281.7 129.8 -232.4 151.1 -207.9C172.4 -183.4 207.1 -183.7 232.2 -168.7C257.3 -153.7 272.7 -123.5 285.8 -92.9C298.8 -62.2 309.5 -31.1 320.2 0L0 0Z" fill="#95e7c8"></path><path d="M0 -240.1C28.5 -242.8 57 -245.5 74.2 -228.4C91.4 -211.2 97.3 -174.3 113.3 -155.9C129.3 -137.6 155.3 -137.8 174.1 -126.5C193 -115.3 204.6 -92.6 214.3 -69.6C224.1 -46.7 232.1 -23.3 240.1 0L0 0Z" fill="#79e1bd"></path><path d="M0 -160.1C19 -161.9 38 -163.7 49.5 -152.2C60.9 -140.8 64.9 -116.2 75.5 -104C86.2 -91.7 103.5 -91.8 116.1 -84.3C128.6 -76.9 136.4 -61.8 142.9 -46.4C149.4 -31.1 154.8 -15.6 160.1 0L0 0Z" fill="#58dbb1"></path><path d="M0 -80C9.5 -80.9 19 -81.8 24.7 -76.1C30.5 -70.4 32.4 -58.1 37.8 -52C43.1 -45.9 51.8 -45.9 58 -42.2C64.3 -38.4 68.2 -30.9 71.4 -23.2C74.7 -15.6 77.4 -7.8 80 0L0 0Z" fill="#44d8ab"></path></g></svg>