<svg id="visual" viewBox="0 0 600 900" width="600" height="900" xmlns="http://www.w3.org/2000/svg" xmlns:xlink="http://www.w3.org/1999/xlink" version="1.1"><rect x="0" y="0" width="600" height="900" fill="#ffffff"></rect><defs><linearGradient id="grad1_0" x1="0%" y1="0%" x2="100%" y2="100%"><stop offset="30%" stop-color="#44d8ab" stop-opacity="1"></stop><stop offset="70%" stop-color="#44d8ab" stop-opacity="1"></stop></linearGradient></defs><defs><linearGradient id="grad1_1" x1="0%" y1="0%" x2="100%" y2="100%"><stop offset="30%" stop-color="#44d8ab" stop-opacity="1"></stop><stop offset="70%" stop-color="#6adeb7" stop-opacity="1"></stop></linearGradient></defs><defs><linearGradient id="grad1_2" x1="0%" y1="0%" x2="100%" y2="100%"><stop offset="30%" stop-color="#87e4c2" stop-opacity="1"></stop><stop offset="70%" stop-color="#6adeb7" stop-opacity="1"></stop></linearGradient></defs><defs><linearGradient id="grad1_3" x1="0%" y1="0%" x2="100%" y2="100%"><stop offset="30%" stop-color="#87e4c2" stop-opacity="1"></stop><stop offset="70%" stop-color="#a2eace" stop-opacity="1"></stop></linearGradient></defs><defs><linearGradient id="grad1_4" x1="0%" y1="0%" x2="100%" y2="100%"><stop offset="30%" stop-color="#baf0da" stop-opacity="1"></stop><stop offset="70%" stop-color="#a2eace" stop-opacity="1"></stop></linearGradient></defs><defs><linearGradient id="grad1_5" x1="0%" y1="0%" x2="100%" y2="100%"><stop offset="30%" stop-color="#baf0da" stop-opacity="1"></stop><stop offset="70%" stop-color="#d2f5e6" stop-opacity="1"></stop></linearGradient></defs><defs><linearGradient id="grad1_6" x1="0%" y1="0%" x2="100%" y2="100%"><stop offset="30%" stop-color="#e9faf3" stop-opacity="1"></stop><stop offset="70%" stop-color="#d2f5e6" stop-opacity="1"></stop></linearGradient></defs><defs><linearGradient id="grad1_7" x1="0%" y1="0%" x2="100%" y2="100%"><stop offset="30%" stop-color="#e9faf3" stop-opacity="1"></stop><stop offset="70%" stop-color="#ffffff" stop-opacity="1"></stop></linearGradient></defs><defs><linearGradient id="grad2_0" x1="0%" y1="0%" x2="100%" y2="100%"><stop offset="30%" stop-color="#44d8ab" stop-opacity="1"></stop><stop offset="70%" stop-color="#44d8ab" stop-opacity="1"></stop></linearGradient></defs><defs><linearGradient id="grad2_1" x1="0%" y1="0%" x2="100%" y2="100%"><stop offset="30%" stop-color="#6adeb7" stop-opacity="1"></stop><stop offset="70%" stop-color="#44d8ab" stop-opacity="1"></stop></linearGradient></defs><defs><linearGradient id="grad2_2" x1="0%" y1="0%" x2="100%" y2="100%"><stop offset="30%" stop-color="#6adeb7" stop-opacity="1"></stop><stop offset="70%" stop-color="#87e4c2" stop-opacity="1"></stop></linearGradient></defs><defs><linearGradient id="grad2_3" x1="0%" y1="0%" x2="100%" y2="100%"><stop offset="30%" stop-color="#a2eace" stop-opacity="1"></stop><stop offset="70%" stop-color="#87e4c2" stop-opacity="1"></stop></linearGradient></defs><defs><linearGradient id="grad2_4" x1="0%" y1="0%" x2="100%" y2="100%"><stop offset="30%" stop-color="#a2eace" stop-opacity="1"></stop><stop offset="70%" stop-color="#baf0da" stop-opacity="1"></stop></linearGradient></defs><defs><linearGradient id="grad2_5" x1="0%" y1="0%" x2="100%" y2="100%"><stop offset="30%" stop-color="#d2f5e6" stop-opacity="1"></stop><stop offset="70%" stop-color="#baf0da" stop-opacity="1"></stop></linearGradient></defs><defs><linearGradient id="grad2_6" x1="0%" y1="0%" x2="100%" y2="100%"><stop offset="30%" stop-color="#d2f5e6" stop-opacity="1"></stop><stop offset="70%" stop-color="#e9faf3" stop-opacity="1"></stop></linearGradient></defs><defs><linearGradient id="grad2_7" x1="0%" y1="0%" x2="100%" y2="100%"><stop offset="30%" stop-color="#ffffff" stop-opacity="1"></stop><stop offset="70%" stop-color="#e9faf3" stop-opacity="1"></stop></linearGradient></defs><g transform="translate(600, 0)"><path d="M0 432.7C-49.4 430.5 -98.7 428.4 -130.4 401.3C-162.1 374.3 -176.1 322.3 -217.5 299.3C-258.9 276.4 -327.6 282.6 -350 254.3C-372.5 226.1 -348.7 163.4 -354.7 115.3C-360.8 67.1 -396.7 33.6 -432.7 0L0 0Z" fill="#f4fdf9"></path><path d="M0 378.6C-43.2 376.7 -86.4 374.9 -114.1 351.2C-141.8 327.5 -154.1 282 -190.3 261.9C-226.5 241.9 -286.6 247.2 -306.3 222.5C-325.9 197.8 -305.1 143 -310.4 100.9C-315.7 58.7 -347.1 29.4 -378.6 0L0 0Z" fill="#ddf8ed"></path><path d="M0 324.5C-37 322.9 -74 321.3 -97.8 301C-121.6 280.7 -132.1 241.7 -163.1 224.5C-194.1 207.3 -245.7 211.9 -262.5 190.7C-279.4 169.5 -261.5 122.5 -266.1 86.4C-270.6 50.4 -297.6 25.2 -324.5 0L0 0Z" fill="#c6f2e0"></path><path d="M0 270.4C-30.8 269.1 -61.7 267.8 -81.5 250.8C-101.3 233.9 -110.1 201.4 -135.9 187.1C-161.8 172.8 -204.7 176.6 -218.8 158.9C-232.8 141.3 -217.9 102.1 -221.7 72C-225.5 42 -248 21 -270.4 0L0 0Z" fill="#aeedd4"></path><path d="M0 216.3C-24.7 215.3 -49.4 214.2 -65.2 200.7C-81 187.1 -88.1 161.1 -108.7 149.7C-129.4 138.2 -163.8 141.3 -175 127.2C-186.2 113 -174.3 81.7 -177.4 57.6C-180.4 33.6 -198.4 16.8 -216.3 0L0 0Z" fill="#95e7c8"></path><path d="M0 162.2C-18.5 161.5 -37 160.7 -48.9 150.5C-60.8 140.4 -66 120.8 -81.6 112.3C-97.1 103.7 -122.8 106 -131.3 95.4C-139.7 84.8 -130.8 61.3 -133 43.2C-135.3 25.2 -148.8 12.6 -162.2 0L0 0Z" fill="#79e1bd"></path><path d="M0 108.2C-12.3 107.6 -24.7 107.1 -32.6 100.3C-40.5 93.6 -44 80.6 -54.4 74.8C-64.7 69.1 -81.9 70.6 -87.5 63.6C-93.1 56.5 -87.2 40.8 -88.7 28.8C-90.2 16.8 -99.2 8.4 -108.2 0L0 0Z" fill="#58dbb1"></path><path d="M0 54.1C-6.2 53.8 -12.3 53.6 -16.3 50.2C-20.3 46.8 -22 40.3 -27.2 37.4C-32.4 34.6 -40.9 35.3 -43.8 31.8C-46.6 28.3 -43.6 20.4 -44.3 14.4C-45.1 8.4 -49.6 4.2 -54.1 0L0 0Z" fill="#44d8ab"></path></g><g transform="translate(0, 900)"><path d="M0 -432.7C43.5 -425.6 87.1 -418.6 132.6 -408C178.1 -397.4 225.6 -383.3 254.3 -350C283 -316.7 293 -264.3 307.4 -223.4C321.8 -182.4 340.7 -153 362.4 -117.7C384 -82.4 408.3 -41.2 432.7 0L0 0Z" fill="#f4fdf9"></path><path d="M0 -378.6C38.1 -372.4 76.2 -366.3 116 -357C155.8 -347.7 197.4 -335.4 222.5 -306.3C247.7 -277.2 256.4 -231.3 269 -195.4C281.6 -159.6 298.1 -133.9 317.1 -103C336 -72.1 357.3 -36.1 378.6 0L0 0Z" fill="#ddf8ed"></path><path d="M0 -324.5C32.6 -319.2 65.3 -313.9 99.4 -306C133.6 -298.1 169.2 -287.5 190.7 -262.5C212.3 -237.6 219.8 -198.2 230.6 -167.5C241.4 -136.8 255.6 -114.8 271.8 -88.3C288 -61.8 306.2 -30.9 324.5 0L0 0Z" fill="#c6f2e0"></path><path d="M0 -270.4C27.2 -266 54.4 -261.6 82.9 -255C111.3 -248.4 141 -239.6 158.9 -218.8C176.9 -198 183.1 -165.2 192.1 -139.6C201.2 -114 213 -95.6 226.5 -73.6C240 -51.5 255.2 -25.8 270.4 0L0 0Z" fill="#aeedd4"></path><path d="M0 -216.3C21.8 -212.8 43.5 -209.3 66.3 -204C89 -198.7 112.8 -191.7 127.2 -175C141.5 -158.4 146.5 -132.1 153.7 -111.7C160.9 -91.2 170.4 -76.5 181.2 -58.9C192 -41.2 204.2 -20.6 216.3 0L0 0Z" fill="#95e7c8"></path><path d="M0 -162.2C16.3 -159.6 32.6 -157 49.7 -153C66.8 -149 84.6 -143.7 95.4 -131.3C106.1 -118.8 109.9 -99.1 115.3 -83.8C120.7 -68.4 127.8 -57.4 135.9 -44.2C144 -30.9 153.1 -15.5 162.2 0L0 0Z" fill="#79e1bd"></path><path d="M0 -108.2C10.9 -106.4 21.8 -104.6 33.1 -102C44.5 -99.4 56.4 -95.8 63.6 -87.5C70.8 -79.2 73.3 -66.1 76.9 -55.8C80.5 -45.6 85.2 -38.3 90.6 -29.4C96 -20.6 102.1 -10.3 108.2 0L0 0Z" fill="#58dbb1"></path><path d="M0 -54.1C5.4 -53.2 10.9 -52.3 16.6 -51C22.3 -49.7 28.2 -47.9 31.8 -43.8C35.4 -39.6 36.6 -33 38.4 -27.9C40.2 -22.8 42.6 -19.1 45.3 -14.7C48 -10.3 51 -5.2 54.1 0L0 0Z" fill="#44d8ab"></path></g></svg>