<svg xmlns="http://www.w3.org/2000/svg" viewBox="0 0 900 450"><path fill="#fff" d="M0 0h900v450H0z"/><path fill="#f3fcfc" d="M900 405c-41-17-81-33-114-54s-58-45-96-61c-39-16-92-24-118-52-25-28-24-78-32-121-9-43-27-80-45-117h405Z"/><path fill="#dcf7f6" d="M900 354c-36-14-71-29-100-47-28-18-50-40-84-54-34-13-80-20-103-45-22-24-21-68-28-105-8-38-24-71-39-103h354Z"/><path fill="#c3f1f0" d="M900 304c-30-13-61-25-85-41-25-15-44-34-73-46s-68-17-88-38c-19-22-18-59-24-91-7-33-20-60-34-88h304Z"/><path fill="#a9ebea" d="M900 253c-25-10-51-21-71-34-21-13-36-28-60-38-25-10-58-14-74-32s-15-49-20-76-17-50-28-73h253Z"/><path fill="#8de5e4" d="M900 203c-20-9-41-17-57-27-16-11-29-23-48-31-20-8-46-12-59-26s-12-39-16-60c-4-22-13-40-22-59h202Z"/><path fill="#6ddfde" d="m900 152-43-20c-12-8-21-17-36-23-14-6-34-9-44-20-9-10-9-29-12-45s-10-30-17-44h152Z"/><path fill="#41d8d8" d="M900 101c-10-4-20-8-28-13-9-5-15-12-25-16-9-4-22-5-29-12-6-8-6-20-8-31-2-10-7-20-11-29h101Z"/><path fill="#17d5d5" d="m900 51-14-7c-4-3-7-6-12-8s-12-3-15-6c-3-4-3-10-4-15-1-6-3-10-6-15h51Z"/><path fill="#f3fcfc" d="M0 45c32 35 65 70 107 77s93-13 131 0c38 14 62 60 74 102 11 42 11 80 25 117 13 37 41 73 68 109H0Z"/><path fill="#dcf7f6" d="M0 96c28 30 57 60 93 67 37 6 82-11 115 0 33 12 54 52 65 89 10 37 10 70 22 102 12 33 35 64 59 96H0Z"/><path fill="#c3f1f0" d="M0 146c24 26 49 52 80 58 32 5 70-10 99 0 28 10 46 45 55 76 9 32 8 60 19 88 10 28 30 55 51 82H0Z"/><path fill="#a9ebea" d="M0 197c20 22 40 43 67 48 26 5 58-8 82 0 23 8 38 37 46 64 7 26 7 50 15 73 9 23 26 45 43 68H0Z"/><path fill="#8de5e4" d="M0 248c16 17 32 34 53 38s47-6 66 0c19 7 31 30 37 51s6 40 12 58c7 19 21 37 35 55H0Z"/><path fill="#6ddfde" d="M0 298c12 13 24 26 40 29s35-5 49 0 23 22 28 38c4 16 4 30 9 44s16 27 26 41H0Z"/><path fill="#41d8d8" d="M0 349c8 8 16 17 27 19 10 2 23-3 33 0 9 3 15 15 18 25l6 30c4 9 10 18 17 27H0Z"/><path fill="#17d5d5" d="M0 399c4 5 8 9 13 10 6 1 12-2 17 0s8 8 9 13 1 10 3 14c2 5 5 10 9 14H0Z"/></svg>