<svg xmlns="http://www.w3.org/2000/svg" viewBox="0 0 900 450">
  <path fill="#43e085" d="m0 245 19-2c19-1 56-5 94-11 37-6 75-15 112-9 38 6 75 26 113 41 37 14 75 22 112 12 38-9 75-37 113-37 37-1 75 25 112 27 38 2 75-21 113-18 37 2 75 30 93 43l19 14V0H0Z"/>
  <path fill="#00dea4" d="M0 207h113c37-1 75-5 112 6 38 10 75 35 113 42 37 7 75-2 112-11 38-9 75-16 113-15 37 1 75 12 112 6 38-5 75-26 113-29 37-3 75 11 93 19l19 7V0H0Z"/>
  <path fill="#00dbbf" d="m0 195 19 1c19 1 56 3 94 8l112 21c38 7 75 12 113 13 37 1 75-1 112-9 38-8 75-20 113-22 37-1 75 9 112 11 38 3 75-3 113-4 37-1 75 2 93 4l19 1V0H0Z"/>
  <path fill="#00d6d4" d="m0 190 19 5c19 4 56 13 94 7 37-6 75-28 112-39 38-11 75-12 113-1 37 10 75 32 112 42 38 10 75 9 113 9l112 2c38 1 75 0 113-5 37-6 75-18 93-23l19-6V0H0Z"/>
  <path fill="#00cfe1" d="m0 144 19 5c19 6 56 16 94 17 37 1 75-7 112-14l113-16c37-5 75-10 112-3 38 8 75 29 113 37 37 7 75 1 112-8 38-9 75-21 113-26 37-6 75-4 93-4l19 1V0H0Z"/>
  <path fill="#00c8e9" d="m0 133 19-3c19-3 56-10 94-14 37-4 75-7 112-6 38 1 75 6 113 7 37 2 75 1 112 6 38 5 75 15 113 22 37 7 75 9 112 11 38 2 75 4 113 0 37-3 75-11 93-15l19-4V0H0Z"/>
  <path fill="#00c1ef" d="m0 97 19 6c19 5 56 17 94 20 37 2 75-3 112-11 38-7 75-16 113-18 37-2 75 3 112 2 38-2 75-10 113-13 37-3 75-1 112 5 38 6 75 15 113 18 37 3 75 0 93-2l19-2V0H0Z"/>
  <path fill="#00b8f3" d="m0 102 19-2c19-2 56-5 94-12 37-7 75-17 112-17 38-1 75 8 113 15 37 7 75 11 112 7 38-5 75-20 113-26 37-7 75-6 112-5a1848 1848 0 0 1 206 19l19 3V0H0Z"/>
  <path fill="#19aff6" d="M0 62h113c37 1 75 3 112 2 38 0 75-4 113-4 37 0 75 4 112 3 38 0 75-4 113-7 37-4 75-6 112-5 38 1 75 6 113 4 37-2 75-10 93-15l19-4V0H0Z"/>
  <path fill="#42a5f5" d="m0 38 19-2c19-2 56-7 94-5 37 1 75 7 112 8 38 0 75-6 113-10a1846 1846 0 0 1 225-9c37 3 75 11 112 14 38 4 75 3 113 1 37-3 75-7 93-10l19-2V0H0Z"/>
</svg>
