<svg id="visual" viewBox="0 0 900 450" width="900" height="450" xmlns="http://www.w3.org/2000/svg" xmlns:xlink="http://www.w3.org/1999/xlink" version="1.1"><path d="M0 245L18.8 243.3C37.7 241.7 75.3 238.3 112.8 232.2C150.3 226 187.7 217 225.2 222.8C262.7 228.7 300.3 249.3 337.8 263.7C375.3 278 412.7 286 450.2 276.3C487.7 266.7 525.3 239.3 562.8 238.7C600.3 238 637.7 264 675.2 265.8C712.7 267.7 750.3 245.3 787.8 247.8C825.3 250.3 862.7 277.7 881.3 291.3L900 305L900 0L881.3 0C862.7 0 825.3 0 787.8 0C750.3 0 712.7 0 675.2 0C637.7 0 600.3 0 562.8 0C525.3 0 487.7 0 450.2 0C412.7 0 375.3 0 337.8 0C300.3 0 262.7 0 225.2 0C187.7 0 150.3 0 112.8 0C75.3 0 37.7 0 18.8 0L0 0Z" fill="#43e085"></path><path d="M0 207L18.8 207.3C37.7 207.7 75.3 208.3 112.8 207C150.3 205.7 187.7 202.3 225.2 212.8C262.7 223.3 300.3 247.7 337.8 255C375.3 262.3 412.7 252.7 450.2 244C487.7 235.3 525.3 227.7 562.8 229C600.3 230.3 637.7 240.7 675.2 235.3C712.7 230 750.3 209 787.8 205.8C825.3 202.7 862.7 217.3 881.3 224.7L900 232L900 0L881.3 0C862.7 0 825.3 0 787.8 0C750.3 0 712.7 0 675.2 0C637.7 0 600.3 0 562.8 0C525.3 0 487.7 0 450.2 0C412.7 0 375.3 0 337.8 0C300.3 0 262.7 0 225.2 0C187.7 0 150.3 0 112.8 0C75.3 0 37.7 0 18.8 0L0 0Z" fill="#00dea4"></path><path d="M0 195L18.8 196C37.7 197 75.3 199 112.8 204.3C150.3 209.7 187.7 218.3 225.2 225.2C262.7 232 300.3 237 337.8 238.2C375.3 239.3 412.7 236.7 450.2 229C487.7 221.3 525.3 208.7 562.8 207.3C600.3 206 637.7 216 675.2 218.3C712.7 220.7 750.3 215.3 787.8 214.2C825.3 213 862.7 216 881.3 217.5L900 219L900 0L881.3 0C862.7 0 825.3 0 787.8 0C750.3 0 712.7 0 675.2 0C637.7 0 600.3 0 562.8 0C525.3 0 487.7 0 450.2 0C412.7 0 375.3 0 337.8 0C300.3 0 262.7 0 225.2 0C187.7 0 150.3 0 112.8 0C75.3 0 37.7 0 18.8 0L0 0Z" fill="#00dbbf"></path><path d="M0 190L18.8 194.5C37.7 199 75.3 208 112.8 201.8C150.3 195.7 187.7 174.3 225.2 163.2C262.7 152 300.3 151 337.8 161.5C375.3 172 412.7 194 450.2 204.2C487.7 214.3 525.3 212.7 562.8 212.7C600.3 212.7 637.7 214.3 675.2 215C712.7 215.7 750.3 215.3 787.8 209.5C825.3 203.7 862.7 192.3 881.3 186.7L900 181L900 0L881.3 0C862.7 0 825.3 0 787.8 0C750.3 0 712.7 0 675.2 0C637.7 0 600.3 0 562.8 0C525.3 0 487.7 0 450.2 0C412.7 0 375.3 0 337.8 0C300.3 0 262.7 0 225.2 0C187.7 0 150.3 0 112.8 0C75.3 0 37.7 0 18.8 0L0 0Z" fill="#00d6d4"></path><path d="M0 144L18.8 149.3C37.7 154.7 75.3 165.3 112.8 166.3C150.3 167.3 187.7 158.7 225.2 152.2C262.7 145.7 300.3 141.3 337.8 136.3C375.3 131.3 412.7 125.7 450.2 133.3C487.7 141 525.3 162 562.8 169.5C600.3 177 637.7 171 675.2 162C712.7 153 750.3 141 787.8 135.7C825.3 130.3 862.7 131.7 881.3 132.3L900 133L900 0L881.3 0C862.7 0 825.3 0 787.8 0C750.3 0 712.7 0 675.2 0C637.7 0 600.3 0 562.8 0C525.3 0 487.7 0 450.2 0C412.7 0 375.3 0 337.8 0C300.3 0 262.7 0 225.2 0C187.7 0 150.3 0 112.8 0C75.3 0 37.7 0 18.8 0L0 0Z" fill="#00cfe1"></path><path d="M0 133L18.8 129.8C37.7 126.7 75.3 120.3 112.8 116C150.3 111.7 187.7 109.3 225.2 110.3C262.7 111.3 300.3 115.7 337.8 117.3C375.3 119 412.7 118 450.2 122.8C487.7 127.7 525.3 138.3 562.8 145C600.3 151.7 637.7 154.3 675.2 156.3C712.7 158.3 750.3 159.7 787.8 156.3C825.3 153 862.7 145 881.3 141L900 137L900 0L881.3 0C862.7 0 825.3 0 787.8 0C750.3 0 712.7 0 675.2 0C637.7 0 600.3 0 562.8 0C525.3 0 487.7 0 450.2 0C412.7 0 375.3 0 337.8 0C300.3 0 262.7 0 225.2 0C187.7 0 150.3 0 112.8 0C75.3 0 37.7 0 18.8 0L0 0Z" fill="#00c8e9"></path><path d="M0 97L18.8 102.7C37.7 108.3 75.3 119.7 112.8 122.5C150.3 125.3 187.7 119.7 225.2 112.3C262.7 105 300.3 96 337.8 94C375.3 92 412.7 97 450.2 95.5C487.7 94 525.3 86 562.8 83C600.3 80 637.7 82 675.2 87.8C712.7 93.7 750.3 103.3 787.8 106.3C825.3 109.3 862.7 105.7 881.3 103.8L900 102L900 0L881.3 0C862.7 0 825.3 0 787.8 0C750.3 0 712.7 0 675.2 0C637.7 0 600.3 0 562.8 0C525.3 0 487.7 0 450.2 0C412.7 0 375.3 0 337.8 0C300.3 0 262.7 0 225.2 0C187.7 0 150.3 0 112.8 0C75.3 0 37.7 0 18.8 0L0 0Z" fill="#00c1ef"></path><path d="M0 102L18.8 100.2C37.7 98.3 75.3 94.7 112.8 87.8C150.3 81 187.7 71 225.2 70.5C262.7 70 300.3 79 337.8 85.8C375.3 92.7 412.7 97.3 450.2 92.5C487.7 87.7 525.3 73.3 562.8 66.7C600.3 60 637.7 61 675.2 62.3C712.7 63.7 750.3 65.3 787.8 69C825.3 72.7 862.7 78.3 881.3 81.2L900 84L900 0L881.3 0C862.7 0 825.3 0 787.8 0C750.3 0 712.7 0 675.2 0C637.7 0 600.3 0 562.8 0C525.3 0 487.7 0 450.2 0C412.7 0 375.3 0 337.8 0C300.3 0 262.7 0 225.2 0C187.7 0 150.3 0 112.8 0C75.3 0 37.7 0 18.8 0L0 0Z" fill="#00b8f3"></path><path d="M0 62L18.8 61.8C37.7 61.7 75.3 61.3 112.8 62.2C150.3 63 187.7 65 225.2 64.3C262.7 63.7 300.3 60.3 337.8 60.3C375.3 60.3 412.7 63.7 450.2 63.3C487.7 63 525.3 59 562.8 55.7C600.3 52.3 637.7 49.7 675.2 50.8C712.7 52 750.3 57 787.8 55.2C825.3 53.3 862.7 44.7 881.3 40.3L900 36L900 0L881.3 0C862.7 0 825.3 0 787.8 0C750.3 0 712.7 0 675.2 0C637.7 0 600.3 0 562.8 0C525.3 0 487.7 0 450.2 0C412.7 0 375.3 0 337.8 0C300.3 0 262.7 0 225.2 0C187.7 0 150.3 0 112.8 0C75.3 0 37.7 0 18.8 0L0 0Z" fill="#19aff6"></path><path d="M0 38L18.8 35.8C37.7 33.7 75.3 29.3 112.8 30.5C150.3 31.7 187.7 38.3 225.2 38.7C262.7 39 300.3 33 337.8 28.8C375.3 24.7 412.7 22.3 450.2 20.5C487.7 18.7 525.3 17.3 562.8 20.3C600.3 23.3 637.7 30.7 675.2 34.2C712.7 37.7 750.3 37.3 787.8 34.8C825.3 32.3 862.7 27.7 881.3 25.3L900 23L900 0L881.3 0C862.7 0 825.3 0 787.8 0C750.3 0 712.7 0 675.2 0C637.7 0 600.3 0 562.8 0C525.3 0 487.7 0 450.2 0C412.7 0 375.3 0 337.8 0C300.3 0 262.7 0 225.2 0C187.7 0 150.3 0 112.8 0C75.3 0 37.7 0 18.8 0L0 0Z" fill="#42a5f5"></path></svg>